<?xml version="1.0" encoding="UTF-8"?>
<svg width="47px" height="47px" viewBox="0 0 47 47" version="1.1" xmlns="http://www.w3.org/2000/svg" xmlns:xlink="http://www.w3.org/1999/xlink">
    <!-- Generator: Sketch 61.2 (89653) - https://sketch.com -->
    <title>home</title>
    <desc>Created with Sketch.</desc>
    <g id="1920" stroke="none" stroke-width="1" fill="none" fill-rule="evenodd">
        <g id="About-us" transform="translate(-350.000000, -843.000000)" fill="#000000" fill-rule="nonzero">
            <g id="home" transform="translate(350.000000, 843.000000)">
                <path d="M11.7390322,3.27457843 C11.3050842,2.90407157 10.6645074,2.90908211 10.2363928,3.28623933 L7.10578785,6.08640396 L7.10578785,5.71945002 C7.10578785,5.29009205 6.75760865,4.94208708 6.32803572,4.94208708 C5.8984628,4.94208708 5.5502836,5.29009205 5.5502836,5.71945002 L5.5502836,7.47869715 L4.25363509,8.63859226 C3.93835974,8.92601522 3.91365907,9.41367769 4.19830923,9.7315283 C4.4829594,10.0493789 4.97059257,10.0785312 5.29115442,9.79693866 L10.9946396,4.69411076 L16.6981248,9.79693866 C16.9046625,9.98524397 17.1965132,10.0482857 17.4623873,9.96201327 C17.7283524,9.87574083 17.9274161,9.65345493 17.9839269,9.3796971 C18.0404376,9.10603036 17.9456454,8.82307134 17.7356441,8.63859226 L11.7390322,3.27457843 Z" id="Path"></path>
                <path d="M16.2142265,11 C15.7802741,11 15.4285451,11.3581225 15.4285451,11.7999631 L15.4285451,17.3998927 L7.5713628,17.3998927 L7.5713628,11.7999631 C7.5713628,11.3581225 7.21963387,11 6.7856814,11 C6.35172893,11 6,11.3581225 6,11.7999631 L6,17.9079204 C6.00773435,18.5186973 6.50015485,19.0075064 7.10002762,18.9999127 L15.8999724,18.9999127 C16.5002134,19.0061002 16.9921736,18.5166348 17,17.9054829 L17,11.7999631 C17,11.3581225 16.6480869,11 16.2142265,11 Z" id="Path"></path>
                <path d="M11.5,20 C8.46239934,20 6,22.4624914 6,25.5 C6,28.5375086 8.46249142,31 11.5,31 C14.5375086,31 17,28.5375086 17,25.5 C16.9965011,22.4638726 14.5361274,20.0034068 11.5,20 Z M7.57137596,25.5 C7.57376994,23.6337954 8.88631912,22.0258651 10.7142199,21.6500092 L10.7142199,25.0545343 L7.80709156,26.7980011 C7.65488926,26.3819999 7.57515109,25.9429796 7.57137596,25.5 Z M8.61681148,28.1452631 L11.3781829,26.4884402 L13.6630589,28.7733163 C12.0578909,29.8441649 9.91048499,29.5768671 8.61681148,28.1452631 Z M14.7740529,27.6623223 L12.285688,25.1746941 L12.285688,21.6500092 C13.5648134,21.9092043 14.6312424,22.7877974 15.1303886,23.9937221 C15.6294427,25.1996468 15.4959319,26.5749 14.7740529,27.6623223 Z" id="Shape"></path>
                <path d="M42.2221615,14.3749643 L42.2221615,11.5937319 C42.2217057,10.8862839 41.6728255,10.3128987 40.995612,10.3124226 L38.7820443,10.3124226 C38.1048307,10.3128987 37.5559505,10.8862839 37.5554948,11.5937319 L37.5554948,14.3749643 L35.9999089,14.3749643 L35.9999089,9.28057686 C35.9990885,8.5046692 35.3971615,7.87586884 34.6543229,7.87491669 L32.678737,7.87491669 C31.9360807,7.87586884 31.3341536,8.5046692 31.3332422,9.28057686 L31.3332422,14.3749643 L29.7777474,14.3749643 L29.7777474,5.43741074 C29.7777474,4.53991343 29.0813021,3.81237503 28.2221615,3.81237503 L26.6665755,3.81237503 C25.8074349,3.81237503 25.1109896,4.53991343 25.1109896,5.43741074 L25.1109896,14.3749643 L24.3332422,14.3749643 C23.9036719,14.3749643 23.5554948,14.0111475 23.5554948,13.562494 L23.5554948,3.81247025 C23.5554948,3.36372159 23.2072266,3 22.7777474,3 C22.3482682,3 22,3.36372159 22,3.81247025 L22,13.562494 C22,14.9086448 23.0446224,16 24.3333333,16 L42.2222526,16 C42.6518229,16 43,15.6362784 43,15.1875298 C43,14.7387811 42.6517318,14.3749643 42.2221615,14.3749643 Z M28.2221615,14.3749643 L26.6665755,14.3749643 L26.6665755,5.43741074 L28.2221615,5.43741074 L28.2221615,14.3749643 Z M34.4444141,14.3749643 L32.8888281,14.3749643 L32.8888281,9.49995239 L34.4444141,9.49995239 L34.4444141,14.3749643 Z M40.6665755,14.3749643 L39.1110807,14.3749643 L39.1110807,11.9374583 L40.6666667,11.9374583 L40.6666667,14.3749643 L40.6665755,14.3749643 Z" id="Shape"></path>
                <path d="M42.2221615,29.3749643 L24.3332422,29.3749643 C23.9036719,29.3749643 23.5554948,29.0112427 23.5554948,28.562494 L23.5554948,27.2738532 L26.1166927,24.5983096 C26.4239453,24.2901936 26.9092057,24.2901936 27.2164583,24.5983096 L28.1280078,25.5505555 C29.0391927,26.502135 30.5162109,26.502135 31.4273047,25.5505555 L34.6721875,22.1608036 C34.9794401,21.8526876 35.4647005,21.8526876 35.7719531,22.1608036 L36.6835026,23.1139065 C37.5956901,24.06282 39.070612,24.06282 39.9827995,23.1139065 L42.7719531,20.20023 C43.0667187,19.8814499 43.062526,19.3746201 42.762474,19.0612672 C42.4624219,18.7478192 41.9773437,18.7434393 41.6721875,19.0513649 L38.8830339,21.9641845 C38.5793359,22.2813459 38.0869661,22.2813459 37.7832682,21.9641845 L36.8717187,21.0119385 C35.9484115,20.0913991 34.495638,20.0913991 33.5724219,21.0119385 L30.3275391,24.4016904 C30.0238411,24.7188519 29.5314714,24.7188519 29.2277734,24.4016904 L28.3170443,23.4494445 C27.3935547,22.5288099 25.9404167,22.5288099 25.0169271,23.4494445 L23.5554948,24.976123 L23.5554948,18.8124702 C23.5554948,18.3637216 23.2072266,18 22.7777474,18 C22.3482682,18 22,18.3638168 22,18.8124702 L22,28.562494 C22,29.9086448 23.0446224,31 24.3333333,31 L42.2222526,31 C42.6518229,31 43,30.6361832 43,30.1875298 C43,29.7386859 42.6517318,29.3749643 42.2221615,29.3749643 Z" id="Path"></path>
                <path d="M46.9951418,36.3889949 L46.9951418,4.34356122 C47.1040821,2.06570911 45.3557132,0.126404544 43.0792542,0 L3.92074577,0 C1.6442868,0.126496341 -0.104082151,2.06580091 0.00485821311,4.34356122 L0.00485821311,36.3889949 C-0.104449263,38.6671224 1.64391969,40.606886 3.92074577,40.7333823 L16.4514575,40.7333823 L16.4514575,42.3000826 L13.3188025,42.3000826 C11.5886973,42.3000826 10.1861475,43.7029252 10.1861475,45.4333915 L10.1861475,46.2166957 C10.1861475,46.6493353 10.5367391,47 10.9692883,47 L36.0308035,47 C36.4633527,47 36.8139443,46.6493353 36.8139443,46.2166957 L36.8139443,45.4333915 C36.8139443,43.7029252 35.4113944,42.3000826 33.6812893,42.3000826 L30.5486343,42.3000826 L30.5486343,40.7333823 L43.079346,40.7333823 C45.3560803,40.6069777 47.1044493,38.6671224 46.9951418,36.3889949 Z M33.6811975,43.8667829 C34.546296,43.8667829 35.2475709,44.5682042 35.2475709,45.4334833 L11.7524291,45.4334833 C11.7524291,44.5682042 12.453704,43.8667829 13.3188025,43.8667829 L33.6811975,43.8667829 Z M18.0178308,42.3000826 L18.0178308,40.7333823 L28.9822609,40.7333823 L28.9822609,42.3000826 L18.0178308,42.3000826 Z M43.0792542,39.1667738 L3.92074577,39.1667738 C2.51094548,39.0373399 1.4653199,37.801109 1.57123159,36.3890867 L1.57123159,34.4667646 L45.4288602,34.4667646 L45.4288602,36.3890867 C45.5347719,37.801109 44.4891463,39.0373399 43.0792542,39.1667738 Z M45.4287684,4.34356122 L45.4287684,32.9000643 L1.57123159,32.9000643 L1.57123159,4.34356122 C1.4653199,2.93163073 2.51103726,1.69567519 3.92074577,1.56660853 L43.079346,1.56660853 C44.4889627,1.69567519 45.5347719,2.93163073 45.4287684,4.34356122 Z" id="Shape"></path>
            </g>
        </g>
    </g>
</svg>