<?xml version="1.0" encoding="UTF-8"?>
<svg viewBox="0 0 173 173" version="1.1" xmlns="http://www.w3.org/2000/svg" xmlns:xlink="http://www.w3.org/1999/xlink">
    <!-- Generator: Sketch 61.2 (89653) - https://sketch.com -->
    <title>browser</title>
    <desc>Created with Sketch.</desc>
    <g id="1920" stroke="none" stroke-width="1" fill="none" fill-rule="evenodd">
        <g id="Contact" transform="translate(-1080.000000, -1031.000000)" fill="#B4B4B4" fill-rule="nonzero">
            <g id="Group" transform="translate(668.000000, 1031.000000)">
                <g id="browser" transform="translate(412.000000, 0.000000)">
                    <circle id="Oval" cx="14.5" cy="14.5" r="2.5"></circle>
                    <circle id="Oval" cx="26.5" cy="14.5" r="2.5"></circle>
                    <circle id="Oval" cx="37.5" cy="14.5" r="2.5"></circle>
                    <path d="M164.15105,34.6 L144.166667,34.6 L144.166667,11.5333333 C144.166667,5.16364922 139.003017,0 132.633333,0 L11.5333333,0 C5.16364922,0 0,5.16364922 0,11.5333333 L0,161.466667 C0,167.836351 5.16364922,173 11.5333333,173 L132.633333,173 C139.003017,173 144.166667,167.836351 144.166667,161.466667 L144.166667,100.916667 L164.15105,100.916667 C169.036214,100.911898 172.995232,96.9528803 173,92.0677167 L173,43.44895 C172.995232,38.5637864 169.036214,34.6047685 164.15105,34.6 Z M11.5333333,5.76666667 L132.633333,5.76666667 C135.818175,5.76666667 138.4,8.34849128 138.4,11.5333333 L138.4,23.0666667 L5.76666667,23.0666667 L5.76666667,11.5333333 C5.76666667,8.34849128 8.34849127,5.76666667 11.5333333,5.76666667 Z M138.4,161.466667 C138.4,164.651509 135.818175,167.233333 132.633333,167.233333 L11.5333333,167.233333 C8.34849127,167.233333 5.76666667,164.651509 5.76666667,161.466667 L5.76666667,28.8333333 L138.4,28.8333333 L138.4,34.6 L101.115617,34.6 C96.230453,34.6047685 92.2714351,38.5637864 92.2666667,43.44895 L92.2666667,92.0677167 C92.2700416,96.876333 96.1093701,100.803966 100.916667,100.916667 L100.916667,113.84265 C100.914151,115.514192 101.86451,117.041012 103.365423,117.776754 C104.866337,118.512496 106.655334,118.328497 107.975067,117.30265 L129.3694,100.916667 L138.4,100.916667 L138.4,161.466667 Z M167.233333,92.0677167 C167.231744,93.7693559 165.852689,95.1484104 164.15105,95.15 L118.216667,95.15 C116.624246,95.15 115.333333,96.4409124 115.333333,98.0333333 C115.333333,99.6257542 116.624246,100.916667 118.216667,100.916667 L119.883233,100.916667 L106.683333,111.008333 L106.683333,100.916667 C108.275754,100.916667 109.566667,99.6257542 109.566667,98.0333333 C109.566667,96.4409124 108.275754,95.15 106.683333,95.15 L101.115617,95.15 C99.4139774,95.1484104 98.0349229,93.7693559 98.0333333,92.0677167 L98.0333333,43.44895 C98.0349229,41.7473108 99.4139774,40.3682562 101.115617,40.3666667 L164.15105,40.3666667 C165.852689,40.3682562 167.231744,41.7473108 167.233333,43.44895 L167.233333,92.0677167 Z" id="Shape"></path>
                    <path d="M132.493893,46 C126.145991,46 121,51.1935016 121,57.6000035 C121,59.2016288 122.286498,60.5 123.873473,60.5 C125.460449,60.5 126.746947,59.2016288 126.746947,57.6000035 C126.746947,54.3967525 129.319942,51.8000046 132.493893,51.8000046 C135.667844,51.8000046 138.24084,54.3967525 138.24084,57.6000035 C138.24084,60.8032544 135.667844,63.4000023 132.493893,63.4000023 C130.906918,63.4000023 129.62042,64.6983764 129.62042,66.3000017 L129.62042,72.1000006 C129.62042,73.7016259 130.906918,75 132.493893,75 C134.080869,75 135.367367,73.7016259 135.367367,72.1000006 L135.367367,68.8346012 C140.977254,67.3789253 144.637328,61.9377678 143.90756,56.138534 C143.177793,50.3393001 138.286234,45.9942281 132.493893,46 Z" id="Shape"></path>
                    <circle id="Oval" cx="132.5" cy="83.5" r="2.5"></circle>
                    <path d="M20.625,95 L72.375,95 C77.1384558,95 81,91.1048772 81,86.3 L81,45.7 C81,40.8951228 77.1384558,37 72.375,37 L20.625,37 C15.861544,37 12,40.8951228 12,45.7 L12,86.3 C12,91.1048772 15.861544,95 20.625,95 Z M17.75,45.7 C17.75,44.0983744 19.0371813,42.8 20.625,42.8 L72.375,42.8 C73.9628185,42.8 75.25,44.0983744 75.25,45.7 L75.25,86.3 C75.25,87.9016256 73.9628185,89.2 72.375,89.2 L20.625,89.2 C19.0371813,89.2 17.75,87.9016256 17.75,86.3 L17.75,45.7 Z" id="Shape"></path>
                    <path d="M14.8928571,109 L90.1071429,109 C91.7048236,109 93,107.880712 93,106.5 C93,105.119288 91.7048236,104 90.1071429,104 L14.8928571,104 C13.2951763,104 12,105.119288 12,106.5 C12,107.880712 13.2951763,109 14.8928571,109 Z" id="Shape"></path>
                    <path d="M14.8928571,121 L90.1071429,121 C91.7048236,121 93,119.880712 93,118.5 C93,117.119288 91.7048236,116 90.1071429,116 L14.8928571,116 C13.2951763,116 12,117.119288 12,118.5 C12,119.880712 13.2951763,121 14.8928571,121 Z" id="Shape"></path>
                    <path d="M12,129.5 C12,130.880712 13.2898463,132 14.8809524,132 L130.119048,132 C131.710154,132 133,130.880712 133,129.5 C133,128.119288 131.710154,127 130.119048,127 L14.8809524,127 C13.2898463,127 12,128.119288 12,129.5 Z" id="Shape"></path>
                    <path d="M130.119048,139 L14.8809524,139 C13.2898463,139 12,140.119288 12,141.5 C12,142.880712 13.2898463,144 14.8809524,144 L130.119048,144 C131.710154,144 133,142.880712 133,141.5 C133,140.119288 131.710154,139 130.119048,139 Z" id="Shape"></path>
                    <path d="M46.1538462,151 L14.8461538,151 C13.2742665,151 12,152.119288 12,153.5 C12,154.880712 13.2742665,156 14.8461538,156 L46.1538462,156 C47.7257334,156 49,154.880712 49,153.5 C49,152.119288 47.7257334,151 46.1538462,151 Z" id="Shape"></path>
                </g>
            </g>
        </g>
    </g>
</svg>