<svg viewBox="0 0 600 600" xmlns="http://www.w3.org/2000/svg"><g fill="none" fill-rule="evenodd"><path d="m464.850235 118.742565c43.790477 66.061112 59.384928 143.106257 55.604455 237.882768-3.937993 94.776512-27.408428 207.284391-89.786231 235.685962s-163.505452-27.146252-251.558966-80.654184c-88.0535145-53.507931-163.0328934-104.819056-176.73710757-168.840276-13.70421423-63.864305 34.02425597-140.59562 90.10127037-209.638112 56.0770142-68.8855777 120.5025732-130.23924684 188.5510852-133.06371242 68.206031-2.98138034 140.035016 52.40952812 183.825494 118.62755442z" fill="#13ddb9" fill-rule="nonzero" transform="translate(40)"/><g fill="#000"><g fill-rule="nonzero" transform="translate(68 61)"><path d="m271.205707 26.827833c0 3.7442991-3.049759 6.7769007-6.807371 6.7769007-3.761136 0-6.807373-3.0326016-6.807373-6.7769007 0-3.7407935 3.046237-6.7733951 6.807373-6.7733951 3.757612 0 6.807371 3.0326016 6.807371 6.7733951z"/><path d="m190.333099 33.0627219h45.199483c3.762514 0 6.809867-3.0326016 6.809867-6.7769017 0-3.7407925-3.047353-6.7733942-6.809867-6.7733942h-45.199483c-3.75899 0-6.806345 3.0326017-6.806345 6.7733942 0 3.7443001 3.047355 6.7769017 6.806345 6.7769017z"/><path d="m435.370793 64.6578369c-10.606893 0-19.531434 7.2925265-21.9654 17.1079102h-20.574562c-5.496618 0-9.957132 4.4412081-9.957132 9.9062349v36.01886h-27.567384v-97.5947576c0-16.5942533-13.574716-30.0960844-30.257742-30.0960844-16.953467 0-175.319289 0-193.010322 0-16.679514 0-30.250717 13.5018311-30.250717 30.0960844v149.8269966h-52.6305578v-42.902558c9.1703964-2.872284 15.840094-11.415757 15.840094-21.475738 0-12.41861-10.146792-22.513535-22.6292075-22.513535-12.4718795 0-22.6256964 10.094925-22.6256964 22.513535 0 10.059981 6.6696986 18.596465 15.840095 21.46875v49.663955c0 3.724884 3.0415786 6.750916 6.7856014 6.750916h59.4196713v114.234436c0 3.728378 3.038067 6.754409 6.789113 6.754409 3.747535 0 6.789115-3.026031 6.789115-6.754409v-114.234436h10.901918v167.046722h-10.901918v-25.798141c0-3.728379-3.04158-6.75441-6.789115-6.75441-3.751046 0-6.789113 3.026031-6.789113 6.75441v25.798141h-30.2823267c-5.493106 0-9.9571328 4.437714-9.9571328 9.906235v36.01886h-17.810448c-3.2768973-8.428162-11.5060198-14.406845-21.1084181-14.406845-12.4824164 0-22.6292084 10.094925-22.6292084 22.513534 0 12.415115 10.146792 22.510041 22.6292084 22.510041 10.5998676 0 19.5314333-7.292527 21.9653989-17.10791h20.5745622c5.486081 0 9.9571328-4.441209 9.9571328-9.906235v-36.01886h26.6612317v53.919968c0 16.594253 13.571203 30.096084 30.250717 30.096084h193.010322c16.683026 0 30.257742-13.501831 30.257742-30.096084v-77.7753h41.823469v42.892075c-9.170396 2.879272-15.840095 11.415756-15.840095 21.486221 0 12.415115 10.146792 22.510041 22.629208 22.510041 12.482417 0 22.625697-10.094926 22.625697-22.510041 0-10.070465-6.669699-18.606949-15.836583-21.486221v-49.646484c0-3.738861-3.041579-6.75441-6.789114-6.75441h-48.612582v-195.420136h31.188479c5.482569 0 9.957132-4.437713 9.957132-9.906234v-36.0188608h17.810447c3.276898 8.4281628 11.495484 14.4068458 21.10842 14.4068458 12.482415 0 22.629207-10.0949252 22.629207-22.5135352 0-12.4151152-10.146792-22.5100399-22.629207-22.5100399zm-397.4739811 58.7106011c-8.067561-4.570494-4.7625659-16.828369 4.4710508-16.828369 4.9978837 0 9.0544926 4.03238 9.0544926 9.004716 0 6.852249-7.4599469 11.25502-13.5255434 7.823653zm-8.0183895 296.51265c-5.2261776 6.974549-16.3001955 3.197251-16.3001955-5.374176 0-7.236618 8.1272684-11.405273 14.0102306-7.530135 4.4078314 2.88626 5.384227 8.816024 2.2899649 12.904311zm255.7806476-406.3722689-4.446465 25.6618653h-104.551648l-5.040031-25.6618653zm56.072529 414.3950969c0 9.147979-7.484532 16.587265-16.683026 16.587265h-193.010322c-9.194982 0-16.672489-7.439286-16.672489-16.587265v-53.919968h10.901918v41.532806c0 10.119384 8.271268 18.348373 18.442646 18.348373h167.673196c10.171378 0 18.442646-8.228989 18.442646-18.348373v-65.388138h10.901919v77.7753zm0-91.284119h-10.901919v-195.420136h10.901919zm0-208.928955h-10.901919v-47.3856963c0-10.1158907-8.27478-18.3483736-18.446158-18.3483736h-23.721507c-3.747535 0-6.789114 3.022537-6.789114 6.7544095 0 3.7283786 3.041579 6.7509156 6.789114 6.7509156h23.721507c2.683333 0 4.867932 2.1734309 4.867932 4.8430485v47.3856963h-31.680189c-3.747535 0-6.789114 3.026031-6.789114 6.754409 0 3.728379 3.041579 6.75441 6.789114 6.75441h31.680189v195.420136h-24.385317c-3.747534 0-6.789113 3.015549-6.789113 6.75441 0 3.728378 3.041579 6.754409 6.789113 6.754409h24.385317v65.388138c0 2.669617-2.184599 4.843048-4.867932 4.843048h-167.673196c-2.683332 0-4.867931-2.173431-4.867931-4.843048v-41.532806h32.586341c3.747534 0 6.789114-3.026032 6.789114-6.75441s-3.04158-6.75441-6.789114-6.75441h-32.586341v-167.046722h13.578227c3.747535 0 6.789114-3.026032 6.789114-6.750916 0-3.728378-3.041579-6.754409-6.789114-6.754409h-13.578227v-99.6179353c0-2.6696176 2.184599-4.8430485 4.867931-4.8430485h119.51369c3.747534 0 6.789113-3.022537 6.789113-6.7509156 0-3.7318725-3.041579-6.7544095-6.789113-6.7544095h-119.51369c-10.171378 0-18.442646 8.2324829-18.442646 18.3483736v99.6179353h-10.901918v-149.8269966c0-9.1479793 7.477507-16.5872653 16.672489-16.5872653h25.748056l5.756522 29.2993934c1.127421 5.7201078 6.199061 9.8712919 12.053926 9.8712919h106.708148c5.995353 0 11.088067-4.2664945 12.099585-10.1438448l5.033006-29.0268405h25.611079c9.198494 0 16.683026 7.439286 16.683026 16.5872653zm57.723271 278.988922c5.960232-3.410401 13.515008.915497 13.515008 7.827148 0 4.961853-4.063634 9.004715-9.050981 9.004715-9.244152 0-12.535099-12.271851-4.464027-16.831863zm35.915923-310.5036776c-5.018958 0-9.050981-4.0708158-9.050981-9.0082096 0-4.92691 4.039048-9.0047148 9.050981-9.0047148 4.987346 0 9.05098 4.0428626 9.05098 9.0047148 0 4.9618539-4.063634 9.0082096-9.05098 9.0082096z"/></g><g transform="translate(240.634958 214.389349)"><path d="m68.5637098 40.5653568.0070436.0060391c-.9903255 1.089467-1.5862112 2.456736-1.5862112 3.9447885 0 3.5522421 3.3583725 6.432928 7.4999896 6.432928 2.3370553 0 4.4247684-.9179544 5.7996726-2.35407l.0028174.0024157 25.9344112-27.8297213-.036626-.0253645c1.026952-1.1003375 1.643968-2.4941789 1.643968-4.0124272 0-3.5522421-3.358372-6.4317202-7.501398-6.4317202-2.6314764 0-4.9431749 1.1643527-6.2814525 2.9217523z"/><path d="m34.2937715 113.944857c.0329827-.040477.0710398-.075731.1040225-.117514 2.3760269-2.965265 1.9662796-7.352448-.9159057-9.796736-2.8809168-2.445594-7.1433036-2.023849-9.5193305.942722-.0215656.026114-.0393256.057451-.0596227.084871l-.0050742-.003917-16.8656049 21.725696c-.01395425.016974-.02917706.030031-.04059416.045699-2.37729549 2.966572-1.96627962 7.352449.91463716 9.798043 2.8821854 2.444287 7.1433036 2.022543 9.5193305-.944028.0241028-.028726.0431313-.061369.0672341-.092706z"/><path d="m113.274673 78.966917c0-3.6549664-2.907691-6.6378738-6.578898-6.8653399v-.0116318l-.316483-.0051696c-.046154 0-.088352-.0064621-.133187-.0064621-.023736 0-.046154.0038772-.06989.0038772l-84.7410601-1.298883 48.5999776-59.6116215-.0026373-.0025849c.9586808-1.17610301 1.5336256-2.66497188 1.5336256-4.28696011 0-3.80100987-3.1437348-6.88214129-7.0206561-6.88214129-2.2180209 0-4.1907673 1.01067314-5.476481 2.58225696l-.0079121-.00516969-57.43513828 70.44857083c-1.01538415 1.1903196-1.62593332 2.7218384-1.62593332 4.3929386 0 3.7880857 3.13450405 6.8588777 6.99823853 6.8588777v.0529893l85.08787287 1.3053451-55.6707436 72.4337292.0131868.009047c-2.2523066 2.928626-1.7789003 7.10056 1.1353841 9.455351 2.9947239 2.419412 7.4254911 2.003253 9.8953801-.931835.1661537-.199033.3164833-.404528.4575822-.6139l62.790301-81.6978024c1.566592-1.2626952 2.567471-3.178063 2.567471-5.3234816"/></g></g></g></svg>