<svg viewBox="0 0 600 600" xmlns="http://www.w3.org/2000/svg"><g fill="none" fill-rule="nonzero"><path d="m550.380623 70.5073972c53.934799 60.6247948 61.955871 164.8496128 33.467234 249.2814048-28.626932 84.293379-93.62528 148.516906-164.155401 170.801362-70.530122 22.146044-146.592018 2.214605-226.802745-28.789857-80.349021-31.142874-164.8468731-73.220357-186.8356758-138.412773-21.9888027-65.330829 18.6697381-153.776591 77.583134-215.508688 58.9133958-61.5936842 135.9433528-96.4737031 224.4517408-105.60894609 88.508388-8.99683027 188.356914 7.75111529 242.291713 68.23749729z" fill="#36a2da" transform="translate(0 64)"/><path d="m377.45952.25976331c19.169909.02229986 34.813833 15.27321919 35.450362 34.38685919l.014683.5803718.00528.5780944v260.2661943c-.022253 19.205846-15.240915 34.882684-34.314094 35.523622l-.579144.014808-.577087.005387-127.810379-.000215.066382.389797c3.467396 19.673682 17.895408 37.37735 31.236571 38.084765l.403933.016219.419975.00573c12.038389 0 21.798123 9.780371 21.798123 21.844214 0 11.812575-9.360911 21.456663-21.092377 21.835904l-.356218.011445h-.349528-150.362944c-12.038902 0-21.798122-9.780886-21.798122-21.847349 0-12.063843 9.759734-21.844214 21.798122-21.844214 13.413961 0 28.222968-17.644806 31.952863-37.515423l.109623-.602806.063857-.378282-127.8115796.000214c-18.9766066-.02523-34.49888584-14.972897-35.42505616-33.81489l-.02358654-.57215-.01468329-.580281-.00528019-.578003v-260.2661941c.02225281-19.20895 15.24099318-34.88593778 34.31430388-35.52381193l.5791472-.01471432.5768746-.00529134zm-95.683518 386.14724269h-150.362944c-3.057349 0-5.536896 2.48479-5.536896 5.548604 0 2.967342 2.324457 5.398266 5.241792 5.544498l.148842.005458.146262.001783h150.362944c3.057741 0 5.536897-2.485183 5.536897-5.551739 0-3.063814-2.479547-5.548604-5.536897-5.548604zm-48.613985-54.792121h-53.135491l-.032044.247021c-1.895099 14.099281-7.883834 27.318564-17.207297 38.021236l-.200659.228147h88.014972l-.220275-.251649c-9.305898-10.691001-15.288393-23.896188-17.184714-37.98338zm163.506602-54.794993h-380.1483146v19.249883c0 10.406498 8.2495614 18.905428 18.5673307 19.23939l.3132864.007615.3286194.002711h341.7299791c10.385456 0 18.865582-8.267741 19.198798-18.606568l.010301-.313925v-.329223zm-189.814873 11.257623c4.43673 0 8.035671 3.606236 8.035671 8.054208 0 4.44545-3.59951 8.051117-8.035671 8.051117-4.436162 0-8.035672-3.605667-8.035672-8.051117 0-4.447972 3.598941-8.054208 8.035672-8.054208zm170.605774-271.5221424h-341.7299791c-10.3865381 0-18.865618 8.2658028-19.1987988 18.6064176l-.0104377.3139807v.3293178 19.2465504l244.7505216.0000298c4.437303 0 8.043268 3.5593621 8.130559 7.9850661l.001619.1643061c0 4.3721245-3.442227 7.9511988-7.790249 8.1387915l-.165545.0054883-.176384.0019573-244.7505216-.000167v134.3854328h11.533522l.0214064-.248816c4.4017699-47.156866 44.4795815-82.91085 91.7302762-81.835182l1.448661.04446c48.363283 1.867241 86.614216 41.686806 86.636436 90.188911 0 4.372124-3.442227 7.951198-7.790249 8.138791l-.165545.005488-.176383.001958-183.2381246-.000137v38.496403h380.1483146v-38.496403l-12.372997.000137c-4.436735 0-8.043255-3.558799-8.130559-7.982024l-.001619-.164213c0-4.374623 3.441683-7.954306 7.790229-8.141926l.165565-.005489.176384-.001958h12.372997v-134.3854328l-67.049294.000167c-4.436734 0-8.043254-3.5587992-8.130558-7.9820238l-.001619-.1642133c0-4.3746217 3.441683-7.9543051 7.790228-8.1419259l.165566-.005489.176383-.0019573 67.049294-.0000298v-19.2465504c0-10.5260223-8.428064-19.0771672-18.891412-19.2471375zm-74.996973 52.2819055c8.000055.013425 14.52689 6.3824318 14.790046 14.3663318l.006052.2424258.002045.2353638-.000443 9.2863319.348781.1086127c2.765139.8759098 5.463671 1.9472933 8.077186 3.2075247l.601601.294172.348765.1754811 6.618363-6.4528112c5.606243-5.6014845 14.581326-5.7806262 20.407596-.4928754l.175583.1619083.175359.1669417.168137.1653842 9.845669 9.8664875c5.657031 5.668993 5.7827 14.802255.330901 20.629753l-.166913.175572-.163988.166959-6.567425 6.580624.168595.320278c1.336476 2.572333 2.48753 5.237593 3.44546 7.978469l.217629.633844.122903.372131 9.239897.150751c7.915639.009965 14.390008 6.244665 14.780241 14.111079l.009958.23887.006248.242269.002239.23626v13.941638c-.013397 8.02012-6.369162 14.561027-14.336547 14.821516l-.241924.005967-.23433.001951-9.266738-.000444-.108406.353463c-.879827 2.796139-1.959682 5.522728-3.232714 8.160696l-.275747.563915-.160935.319643 6.43241 6.639638c5.59338 5.615175 5.772286 14.612881.492159 20.448957l-.161675.175877-.166701.175647-.164742.168004-9.840911 9.858588c-5.66281 5.654648-14.762516 5.780197-20.582634.330771l-.175356-.166841-.168017-.165165-6.56869-6.576501-.318994.168254c-2.564574 1.333858-5.220734 2.486133-7.949819 3.448342l-.631076.218671-.372758.124565-.158199 9.264147c-.013264 7.932098-6.234904 14.42018-14.084863 14.80811l-.238371.009883-.241763.006163-.235314.002147h-13.91168c-8.000383-.010069-14.527431-6.379208-14.790589-14.366151l-.006053-.242519-.002044-.235452-.000075-9.285292-.346917-.108314c-2.757723-.878179-5.448537-1.949882-8.051966-3.207893l-.599231-.293615-.347632-.175449-6.657798 6.441868c-5.603205 5.59844-14.581126 5.777503-20.404726.492612l-.1755-.161821-.175272-.166852-.167763-.165007-9.843924-9.858483c-5.646468-5.671832-5.771859-14.794527-.330289-20.624288l.1666-.175645.16438-.167739 6.569905-6.589862-.165886-.314167c-1.335037-2.562871-2.486012-5.227334-3.446047-7.97516l-.218154-.635585-.123982-.374615-9.243045-.147103c-7.914298-.013291-14.386476-6.24693-14.776579-14.114073l-.009955-.238894-.006246-.242293-.00224-.236346v-13.942727c.020098-8.014019 6.379385-14.548009 14.343527-14.80499l.241824-.005861.233693-.001852 9.265679-.000132.10785-.34765c.871701-2.770745 1.940547-5.474264 3.20081-8.095268l.294225-.603375.176992-.353502-6.432612-6.664323c-5.600465-5.612308-5.77963-14.617-.492779-20.450826l.161881-.175805.166913-.17557.163694-.166663 9.828861-9.8558973c5.662815-5.6546526 14.759526-5.780194 20.579519-.3307682l.175354.1668406.168211.1653609 6.57682 6.5882854.319503-.1684347c2.564895-1.3360529 5.219855-2.4887106 7.949666-3.4508851l.631278-.2186556.372718-.1249737.158717-9.2604974c.013261-7.9335591 6.233252-14.4199931 14.084263-14.8109524l.238404-.0099767.241797-.0062599.235848-.0022438zm-1.435912 16.1432509-11.163363.1091006.117342 8.8498136c-.033381 6.4059578-4.1333 12.0719978-10.180904 14.1079308l-.204587.067248-1.635014.510603-.276118.0975c-2.089106.747186-4.123594 1.619903-6.087077 2.611129l-.533722.273268c-5.622504 3.019259-12.527093 2.123323-17.198726-2.208716l-.165889-.156175-.174935-.170162-6.323566-6.336718-7.824671 7.993437 6.339242 6.183036c4.537255 4.617946 5.588475 11.625477 2.636823 17.352009l-.105839.201575c-1.392246 2.692471-2.552556 5.493363-3.463086 8.35766-1.856315 6.122734-7.38759 10.378348-13.756429 10.609418l-.214993.006262-.22663.003128-8.920745-.000206.111462 11.186967 8.835065-.117049c6.46097.050822 12.148985 4.260006 14.103236 10.396514l.063755.205261c.916246 2.879616 2.076885 5.680534 3.460004 8.355625 3.012803 5.634231 2.118907 12.553224-2.203741 17.237663l-.155837.166345-.170324.175954-6.325741 6.336209 7.978644 7.838617 6.162803-6.34185c2.700453-2.709521 6.352544-4.251058 10.168867-4.302561l.249116-.001243c2.378362.003279 4.725733.560217 6.849279 1.621876l.264264.135333c2.686072 1.397875 5.480304 2.560328 8.339803 3.470118 6.106826 1.863694 10.349861 7.407056 10.577091 13.786157l.006135.215338.003003.226332-.000194 8.939088 11.165954-.111698-.119399-8.850777c.054082-6.473059 4.253101-12.16745 10.373859-14.12586l.204734-.063893c2.879387-.92213 5.674515-2.085721 8.34245-3.470988 5.623028-3.016201 12.527232-2.119308 17.198222 2.212148l.165866.156154.174539.169766 6.322926 6.330326 7.822078-7.992917-6.348105-6.192415c-4.534109-4.614798-5.58523-11.618964-2.636705-17.345737l.105727-.201585c1.391481-2.690992 2.552119-5.491909 3.46284-8.353722 1.852518-6.124562 7.382709-10.379214 13.753493-10.610231l.21506-.00626.226623-.003127 8.811412-.000324v-11.189565l-8.821585.120177c-6.460971-.050822-12.148985-4.260006-14.103354-10.396881l-.063759-.205274c-.915687-2.880909-2.075997-5.681801-3.459731-8.358091-3.013082-5.631412-2.121898-12.550219 2.197249-17.234473l.155712-.166339.170744-.176501 6.328158-6.336542-7.976052-7.838098-6.169129 6.349189c-4.608125 4.550159-11.607413 5.604028-17.321982 2.642855l-.201151-.10618c-2.686791-1.39519-5.481773-2.557954-8.340026-3.470408-6.107935-1.859669-10.350407-7.401251-10.580796-13.7825359l-.006243-.2154135-.003119-.2269958zm-183.28265 54.815873c-37.4185934 0-68.8506519 28.020006-73.340047 65.074939l-.0978357.861203h70.0720947l18.121271-18.162085c3.130051-3.132992 8.176904-3.177119 11.361977-.131348l.135353.132424c3.073009 3.083117 3.176741 8.024693.26657 11.239921l-.130345.140717-.1366.140302-6.62428 6.640069h53.812561l-.097955-.861465c-4.44784-36.644719-35.251608-64.50125-72.198151-65.065935zm47.636868 45.414841c4.43711 0 8.034129 3.605764 8.034129 8.054208 0 4.445922-3.597588 8.051117-8.034129 8.051117-4.439057 0-8.037214-3.604625-8.037214-8.051117 0-4.449014 3.597588-8.054208 8.037214-8.054208zm-95.3942865 0c4.4396265 0 8.0372147 3.605194 8.0372147 8.054208 0 4.446492-3.5981572 8.051117-8.0372147 8.051117-4.4365406 0-8.0341289-3.605195-8.0341289-8.051117 0-4.448444 3.5970193-8.054208 8.0341289-8.054208zm225.5187845-68.577515c23.335817 0 42.252081 18.956261 42.252081 42.34142s-18.916264 42.341419-42.253335 42.341419c-23.325463-.022612-42.228262-18.96538-42.250827-42.341419 0-23.385159 18.916264-42.34142 42.252081-42.34142zm0 16.278501c-14.364206 0-26.007927 11.66834-26.007927 26.062919 0 14.394578 11.643721 26.062919 26.007927 26.062919s26.007927-11.668341 26.007927-26.062919-11.643721-26.062919-26.007927-26.062919zm-150.34637 31.517949c4.439057 0 8.037214 3.604625 8.037214 8.051116 0 4.449014-3.597588 8.054209-8.037214 8.054209-4.437111 0-8.03413-3.605765-8.03413-8.054209 0-4.445922 3.597588-8.051116 8.03413-8.051116zm-54.950542 0c4.4365409 0 8.0341294 3.605195 8.0341294 8.051116 0 4.448444-3.5970197 8.054209-8.0341294 8.054209-4.4396265 0-8.0372143-3.605195-8.0372143-8.054209 0-4.446491 3.5981568-8.051116 8.0372143-8.051116zm205.298454-13.507693c4.436541 0 8.03413 3.605196 8.03413 8.051117 0 4.448444-3.59702 8.054209-8.03413 8.054209-4.439626 0-8.037214-3.605195-8.037214-8.054209 0-4.446492 3.598157-8.051117 8.037214-8.051117zm-177.824726 0c4.439058 0 8.037215 3.604625 8.037215 8.051117 0 4.449014-3.597588 8.054209-8.037215 8.054209-4.437109 0-8.034129-3.605765-8.034129-8.054209 0-4.445921 3.597589-8.051117 8.034129-8.051117zm-51.3406725-42.818618c2.5541145-1.24603 5.564818-1.063923 7.9471289.472025l.1614438.10682.1520958.105719c2.310126 1.64502 3.6043368 4.386863 3.4008288 7.230011-.2044414 2.908145-1.9375497 5.486073-4.5480435 6.761524-9.2655309 4.538152-17.7864394 10.470883-25.2721482 17.595344-2.1068499 2.003992-5.11846 2.726395-7.9027036 1.896486-2.7820199-.83298-4.9105544-3.092271-5.582719-5.926805-.6726366-2.832789.2089297-5.81011 2.315226-7.813574 8.3461536-7.937007 17.8019862-14.600374 28.0696077-19.779807l.5303453-.265618.0001675-.026593zm44.1990965-12.0369134c14.365816-.868004 28.767336.9058385 42.497458 5.2322344l.667472.21251 1.551863.504158-.000428.092946.128364.061616c2.120923 1.039655 3.698235 2.970812 4.292037 5.293623l.047197.194464.039555.181437c.592079 2.853097-.370424 5.810385-2.525723 7.753736-2.110285 1.902764-5.048508 2.553505-7.747041 1.728946l-.183607-.058508c-12.189302-3.996911-25.014219-5.650482-37.812027-4.874706-2.894818.172285-5.660138-1.225117-7.252425-3.665341-1.590583-2.437611-1.772239-5.545847-.476823-8.156697 1.300026-2.6126727 3.880426-4.3284203 6.774128-4.5004184zm-74.7673478-68.272279c4.4371095 0 8.034129 3.6057653 8.034129 8.0542088 0 4.4459214-3.5975883 8.0511166-8.034129 8.0511166-4.4390574 0-8.0372147-3.6046251-8.0372147-8.0511166 0-4.4490137 3.5975883-8.0542088 8.0372147-8.0542088zm27.476813 0c4.4371102 0 8.0341293 3.605765 8.0341293 8.0542088 0 4.4459217-3.597588 8.0511166-8.0341293 8.0511166-4.439057 0-8.0372143-3.6046252-8.0372143-8.0511166 0-4.4490136 3.5975883-8.0542088 8.0372143-8.0542088zm26.9583828 0c4.4371097 0 8.0341294 3.6057653 8.0341294 8.0542088 0 4.4459215-3.5975885 8.0511166-8.0341294 8.0511166-4.4390575 0-8.0372143-3.604625-8.0372143-8.0511166 0-4.4490138 3.5975878-8.0542088 8.0372143-8.0542088z" fill="#000" transform="translate(65.40547 93.468639)"/></g></svg>