<svg viewBox="0 0 600 600"  xmlns="http://www.w3.org/2000/svg"><g fill="none" fill-rule="nonzero" transform="translate(-19 42)"><path d="m307.742399 171.315736c51.954232 56.095606 140.65658 91.764241 160.139417 153.516547 19.32444 61.595176-30.570631 149.431153-100.423729 174.572041-69.853099 24.983757-159.664227-12.727575-222.389458-60.338131-62.883629-47.610557-98.6813622-104.963208-122.4409196-174.729172-23.91795455-69.923094-35.7977333-152.102372 0-204.4268448 35.7977332-52.32447307 119.2729786-74.7941417 168.5344606-47.9248177 49.261483 26.869324 64.625996 103.3919015 116.580229 159.3303775z" fill="#ffc850" transform="matrix(.93969262 -.34202014 .34202014 .93969262 .715017 162.030259)"/><g fill="#000" transform="translate(133.311534 29.384615)"><path d="m413.958966 0h-397.0056432c-9.34800166 0-16.9533228 7.60273782-16.9533228 16.9475648v312.8659822c0 4.680631 3.79444027 8.473783 8.4766612 8.473783 4.6822209 0 8.4766616-3.793152 8.4766616-8.473783v-253.595523h397.0056432v337.603641h-397.0056432v-15.912172c0-4.680631-3.7944407-8.477069-8.4766616-8.477069-4.68222093 0-8.4766612 3.796438-8.4766612 8.477069v15.912172c0 9.344827 7.60532114 16.947566 16.9533228 16.947566h397.0056432c9.348002 0 16.956611-7.602739 16.956611-16.947566v-396.8741002c0-9.34482698-7.605321-16.9475648-16.956611-16.9475648zm-397.0056432 59.2671725v-42.3196077h397.0056432v42.3196077z"/><path d="m379.502455 399c9.340587 0 16.939876-7.604527 16.939876-16.954842v-273.016682c0-9.3470254-7.599289-16.9515529-16.939876-16.9515529h-325.3961097c-9.3405878 0-16.9398768 7.6045275-16.9398768 16.9515529v273.016682c0 9.350315 7.599289 16.954842 16.9398768 16.954842zm-325.3961097-289.971524h325.3961097l.013141 273.016682s-.003286 0-.013141 0h-325.3961097z"/><path d="m47.7303029 35.4452418c-1.7720467-4.3332344-6.759663-6.4243481-11.1400044-4.6713582-4.3803414 1.7529907-6.4941886 6.6869683-4.7221409 11.0202027l.1194638.2987307c1.3472864 3.2926018 4.5529003 5.2917984 7.9343914 5.2917984 1.0685374 0 2.1569858-.2002478 3.205613-.6204402 4.3803414-1.7529898 6.4941886-6.6869683 4.7254592-11.0202027z"/><path d="m73.045273 35.4452418c-1.7719049-4.3332344-6.759122-6.4243481-11.1391128-4.6713582-4.3799908 1.7529907-6.493668 6.6869683-4.721763 11.0202027l.1227722.2987307c1.3438615 3.2926018 4.549218 5.2917984 7.9304384 5.2917984 1.0684519 0 2.1568132-.2002478 3.2053573-.6204402 4.3799908-1.7529898 6.496986-6.6869683 4.725081-11.0202027z"/><path d="m98.9002085 35.4452418c-1.7719058-4.3332344-6.7591229-6.4243481-11.1391137-4.6713582-4.3799908 1.7529907-6.493668 6.6869683-4.721763 11.0202027l.1227731.2987307c1.3471786 3.2926018 4.5492171 5.2917984 7.9337563 5.2917984 1.0651339 0 2.1534953-.2002478 3.2020385-.6204402 4.3799908-1.7529898 6.4969863-6.6869683 4.725081-11.0202027z"/><path d="m304.665233 35.4452418c-1.771906-4.3332344-6.759122-6.4243481-11.139113-4.6713582-4.379991 1.7529907-6.496987 6.6869683-4.725081 11.0202027l.122772.2987307c1.347179 3.2926018 4.549218 5.2917984 7.933756 5.2917984 1.068452 0 2.153496-.2002478 3.205357-.6204402 4.379991-1.7529898 6.493668-6.6869683 4.721763-11.0202027z"/><path d="m390.106347 29.6153846h-59.506391c-4.689899 0-8.490562 3.7385326-8.490562 8.3477718 0 4.6092391 3.800663 8.3445359 8.490562 8.3445359h59.506391c4.689899 0 8.490561-3.7352968 8.490561-8.3445359 0-4.6092392-3.800662-8.3477718-8.490561-8.3477718z"/><path d="m.74413031 367.324964c1.35109286 3.292547 4.55454327 5.290421 7.93725456 5.290421 1.06892299 0 2.16108363-.200445 3.21340953-.624336 4.3786027-1.761283 6.4898916-6.703391 4.7105656-11.037592l-.1128672-.279308c-1.779326-4.337488-6.76874204-6.424083-11.15066414-4.666086-4.37860267 1.761283-6.48989156 6.700105-4.71056562 11.037593z"/><path d="m125.134596 128.692308h-32.6601015c-4.6652608 0-8.445957 3.779661-8.445957 8.443646v32.651168c0 4.663985 3.7806962 8.443647 8.445957 8.443647h32.6601015c4.665261 0 8.449233-3.779662 8.449233-8.443647v-32.651168c0-4.663985-3.783972-8.443646-8.449233-8.443646zm-8.445956 32.651168h-15.768189v-15.763875h15.768189z"/><path d="m341.628766 144.846154h-179.086308c-4.687847 0-8.490139 3.738532-8.490139 8.344535 0 4.609239 3.802292 8.347773 8.490139 8.347773h179.086308c4.687848 0 8.49014-3.738534 8.49014-8.347773 0-4.606003-3.802292-8.344535-8.49014-8.344535z"/><path d="m125.134596 189.538462h-32.6601015c-4.6652608 0-8.445957 3.779412-8.445957 8.443088v32.64901c0 4.663676 3.7806962 8.446363 8.445957 8.446363h32.6601015c4.665261 0 8.449233-3.782687 8.449233-8.446363v-32.64901c0-4.663676-3.783972-8.443088-8.449233-8.443088zm-8.445956 32.64901h-15.768189v-15.762833h15.768189z"/><path d="m341.628766 206.230769h-179.086308c-4.687847 0-8.490139 3.736021-8.490139 8.346154s3.802292 8.346154 8.490139 8.346154h179.086308c4.687848 0 8.49014-3.736021 8.49014-8.346154s-3.802292-8.346154-8.49014-8.346154z"/><path d="m125.134596 250.923077h-32.6601015c-4.6652608 0-8.445957 3.782687-8.445957 8.443089v32.652284c0 4.663676 3.7806962 8.443088 8.445957 8.443088h32.6601015c4.665261 0 8.449233-3.779412 8.449233-8.443088v-32.652284c0-4.660402-3.783972-8.443089-8.449233-8.443089zm-8.445956 32.652285h-15.768189v-15.762834h15.768189z"/><path d="m341.628766 267.076923h-179.086308c-4.687847 0-8.490139 3.736021-8.490139 8.346154s3.802292 8.346154 8.490139 8.346154h179.086308c4.687848 0 8.49014-3.736021 8.49014-8.346154s-3.802292-8.346154-8.49014-8.346154z"/><path d="m125.134596 311.769231h-32.6601015c-4.6652608 0-8.445957 3.779662-8.445957 8.443647v32.651167c0 4.663985 3.7806962 8.443647 8.445957 8.443647h32.6601015c4.665261 0 8.449233-3.779662 8.449233-8.443647v-32.651167c0-4.663985-3.783972-8.443647-8.449233-8.443647zm-8.445956 32.651168h-15.768189v-15.763875h15.768189z"/><path d="m341.628766 328.461538h-179.086308c-4.687847 0-8.490139 3.736022-8.490139 8.346155s3.802292 8.346153 8.490139 8.346153h179.086308c4.687848 0 8.49014-3.73602 8.49014-8.346153s-3.802292-8.346155-8.49014-8.346155z"/></g></g></svg>