<svg  viewBox="0 0 868 977"  xmlns="http://www.w3.org/2000/svg"><g fill="none"><path d="m756.608443 193.352477c71.275096 107.56951 96.657235 233.024687 90.503989 387.352441-6.409631 154.327753-44.611031 337.528083-146.139585 383.775308-101.528554 46.247224-266.127876-44.203148-409.447224-131.331897-143.319347-87.128748-265.35872-170.680363-287.66423558-274.928249-22.30551562-103.992377 55.37921118-228.936535 146.65235558-341.360727 91.273144-112.168681 196.134706-212.07290598 306.893129-216.67207744 111.014807-4.85468099 227.926475 85.34018154 299.201571 193.16520144z" fill="#1AB394" transform="translate(.211275)"/><g fill="#000" transform="translate(149 124)"><circle cx="60" cy="60" r="12"/><circle cx="107" cy="60" r="12"/><circle cx="155" cy="60" r="12"/><path d="m682.22315 143.8h-83.056483v-95.8666667c0-26.472849-21.460485-47.9333333-47.933334-47.9333333h-503.2999997c-26.472849 0-47.9333333 21.4604843-47.9333333 47.9333333v623.1333337c0 26.472849 21.4604843 47.933333 47.9333333 47.933333h503.2999997c26.472849 0 47.933334-21.460484 47.933334-47.933333v-251.65h83.056483c20.303079-.019818 36.757032-16.473771 36.77685-36.77685v-202.062967c-.019818-20.303079-16.473771-36.757032-36.77685-36.77685zm-634.2898167-119.8333333h503.2999997c13.236425 0 23.966667 10.7302421 23.966667 23.9666666v47.9333334h-551.2333333v-47.9333334c0-13.2364245 10.7302421-23.9666666 23.9666666-23.9666666zm527.2666667 647.1000003c0 13.236424-10.730242 23.966666-23.966667 23.966666h-503.2999997c-13.2364245 0-23.9666666-10.730242-23.9666666-23.966666v-551.233334h551.2333333v23.966667h-154.956483c-20.303079.019818-36.757032 16.473771-36.77685 36.77685v202.062967c.014026 19.984943 15.970542 36.308457 35.95 36.77685v53.721283c-.010457 6.947043 3.939301 13.292616 10.177203 16.35041 6.237901 3.057795 13.673094 2.293081 19.157997-1.97041l88.916333-68.101283h37.5318zm119.833333-288.42685c-.006606 7.07213-5.738052 12.803577-12.810183 12.810183h-190.906483c-6.618212 0-11.983334 5.365122-11.983334 11.983333 0 6.618212 5.365122 11.983334 11.983334 11.983334h6.926366l-54.8597 41.941666v-41.941666c6.618212 0 11.983334-5.365122 11.983334-11.983334 0-6.618211-5.365122-11.983333-11.983334-11.983333h-23.139816c-7.072131-.006606-12.803577-5.738053-12.810184-12.810183v-202.062967c.006607-7.072131 5.738053-12.803577 12.810184-12.810183h261.979633c7.072131.006606 12.803577 5.738052 12.810183 12.810183z"/><path d="m552.474777 193c-26.219595 0-47.474777 21.311265-47.474777 47.600014 0 6.572187 5.313796 11.899998 11.868694 11.899998 6.554899 0 11.868695-5.327811 11.868695-11.899998 0-13.144374 10.627591-23.799995 23.737388-23.799995 13.109798 0 23.737389 10.655621 23.737389 23.799995 0 13.144375-10.627591 23.799995-23.737389 23.799995-6.554898 0-11.868694 5.327811-11.868694 11.899998v23.799995c0 6.572187 5.313796 11.899998 11.868694 11.899998 6.554899 0 11.868695-5.327811 11.868695-11.899998v-13.399397c23.171274-5.973291 38.288969-28.300799 35.274712-52.097655-3.014256-23.796856-23.218521-41.626635-47.143407-41.60295z"/><circle cx="547" cy="348" r="12"/><path d="m84 392h216c19.88225 0 36-16.11775 36-36v-168c0-19.88225-16.11775-36-36-36h-216c-19.882251 0-36 16.11775-36 36v168c0 19.88225 16.117749 36 36 36zm-12-204c0-6.627416 5.372583-12 12-12h216c6.627416 0 12 5.372584 12 12v168c0 6.627416-5.372584 12-12 12h-216c-6.627417 0-12-5.372584-12-12z"/><path d="m59 455h312c6.627416 0 12-5.372584 12-12s-5.372584-12-12-12h-312c-6.627417 0-12 5.372584-12 12s5.372583 12 12 12z"/><path d="m59 503h312c6.627416 0 12-5.372584 12-12s-5.372584-12-12-12h-312c-6.627417 0-12 5.372584-12 12s5.372583 12 12 12z"/><path d="m48 540c0 6.627416 5.3512632 12 11.952381 12h478.095238c6.601117 0 11.952381-5.372584 11.952381-12s-5.351264-12-11.952381-12h-478.095238c-6.6011178 0-11.952381 5.372584-11.952381 12z"/><path d="m538.047619 576h-478.095238c-6.6011178 0-11.952381 5.372584-11.952381 12s5.3512632 12 11.952381 12h478.095238c6.601117 0 11.952381-5.372584 11.952381-12s-5.351264-12-11.952381-12z"/><path d="m187.307692 624h-128.6153843c-6.4574832 0-11.6923077 5.372584-11.6923077 12s5.2348245 12 11.6923077 12h128.6153843c6.457483 0 11.692308-5.372584 11.692308-12s-5.234825-12-11.692308-12z"/></g></g></svg>