<?xml version="1.0" encoding="UTF-8"?>
<svg  viewBox="0 0 100 100" version="1.1" xmlns="http://www.w3.org/2000/svg" xmlns:xlink="http://www.w3.org/1999/xlink">
    <!-- Generator: Sketch 61.2 (89653) - https://sketch.com -->
    <title>Instagram</title>
    <desc>Created with Sketch.</desc>
    <g id="Instagram" stroke="none" stroke-width="1" fill-rule="evenodd">
        <g id="034-instagram"  fill-rule="nonzero">
            <path d="M68.75,0 L31.25,0 C13.99375,0 0,13.99375 0,31.25 L0,68.75 C0,86.00625 13.99375,100 31.25,100 L68.75,100 C86.00625,100 100,86.00625 100,68.75 L100,31.25 C100,13.99375 86.00625,0 68.75,0 Z M90.625,68.75 C90.625,80.8125 80.8125,90.625 68.75,90.625 L31.25,90.625 C19.1875,90.625 9.375,80.8125 9.375,68.75 L9.375,31.25 C9.375,19.1875 19.1875,9.375 31.25,9.375 L68.75,9.375 C80.8125,9.375 90.625,19.1875 90.625,31.25 L90.625,68.75 Z" id="Shape"></path>
            <path d="M51.5,25 C36.865375,25 25,36.865375 25,51.5 C25,66.134625 36.865375,78 51.5,78 C66.134625,78 78,66.134625 78,51.5 C78,36.865375 66.134625,25 51.5,25 Z M51.5,68.0625 C42.37075,68.0625 34.9375,60.62925 34.9375,51.5 C34.9375,42.364125 42.37075,34.9375 51.5,34.9375 C60.62925,34.9375 68.0625,42.364125 68.0625,51.5 C68.0625,60.62925 60.62925,68.0625 51.5,68.0625 Z" id="Shape"></path>
            <circle id="Oval" cx="77.5" cy="22.5" r="3.5"></circle>
        </g>
    </g>
</svg>