<?xml version="1.0" encoding="UTF-8"?>
<svg viewBox="0 0 2880 1408" version="1.1" xmlns="http://www.w3.org/2000/svg" xmlns:xlink="http://www.w3.org/1999/xlink">
    <defs>
        <polygon id="path-1" points="0 0.227 924.37875 0.227 924.37875 1408 0 1408"></polygon>
    </defs>
    <g id="Page-1" stroke="none" stroke-width="1" fill-rule="evenodd">
        <g id="Group-14" transform="translate(0.000000, -1.000000)">
            <g id="Group-3" transform="translate(0.000000, 0.770000)">
                <mask id="mask-2" >
                    <use xlink:href="#path-1"></use>
                </mask>
                <g id="Clip-2"></g>
            </g>
            <path d="M526.853,0.996898471 C550.252,0.959 568.487,11.588 578.935,32.776 C589.463,54.124 586.994,75.064 572.28,93.801 C549.121,123.289 525.461,152.383 502.013,181.643 C394.15,316.238 286.287,450.833 178.429,585.434 C177.506,586.585 176.656,587.796 175.202,589.743 C177.524,589.913 179.21,590.121 180.899,590.147 C244.551,591.136 308.203,592.106 371.856,593.081 C481.165,594.754 590.475,596.415 699.783,598.109 C755.771,598.977 811.759,599.777 867.742,600.871 C890.779,601.321 908.086,612.123 918.135,632.761 C928.186,653.403 926.034,673.722 912.172,692.117 C879.377,735.637 846.285,778.932 813.312,822.317 C798.288,842.086 783.202,861.809 768.246,881.629 C642.082,1048.83 515.92,1216.031 389.83,1383.287 C379.123,1397.489 365.487,1406.187 347.652,1407.987 C346.864,1408.066 346.113,1408.5 345.344,1408.77 L340.344,1408.77 C336.109,1407.952 331.802,1407.401 327.652,1406.272 C288.299,1395.562 272.567,1349.389 297.271,1316.579 C337.463,1263.199 377.869,1209.981 418.185,1156.694 C455.988,1106.73 493.83,1056.796 531.583,1006.795 C604.261,910.537 676.888,814.239 749.531,717.954 C750.523,716.64 751.447,715.277 753.208,712.808 C750.066,712.808 747.868,712.836 745.672,712.804 C646.692,711.356 547.713,709.934 448.734,708.443 C337.425,706.766 226.116,705.023 114.808,703.317 C95.645,703.024 76.479,702.902 57.32,702.47 C28.854,701.829 6.322,683.483 1.116,656.237 C-2.257,638.588 2.063,622.645 13.427,608.511 C54.048,557.992 94.544,507.374 135.084,456.791 C250.244,313.105 365.45,169.457 480.489,25.674 C492.568,10.577 507.503,1.028 526.853,0.996898471 Z M259.9722,874.8739 C282.2962,880.5729 295.8802,895.5079 300.9252,918.0589 C301.2152,919.3539 301.3572,920.6899 301.4742,922.0139 C301.6642,924.1699 301.7762,926.3329 301.8592,927.5639 C301.7242,941.2479 298.0302,952.8179 290.0352,962.8049 C241.2052,1023.7999 192.4442,1084.8519 143.3952,1145.6719 C124.2892,1169.3639 88.0252,1172.5789 64.3992,1153.3459 C40.8392,1134.1679 37.3702,1100.2229 56.7292,1076.0159 C105.3182,1015.2589 153.8572,954.4599 202.7542,893.9519 C217.4782,875.7289 237.1992,869.0589 259.9722,874.8739 Z M2077.9921,434.94 C2131.6231,435.387 2182.5251,446.62 2228.6461,474.872 C2295.5091,515.83 2334.0631,576.248 2347.2381,652.877 C2357.0811,710.12 2352.3481,766.377 2328.8821,819.931 C2294.4541,898.503 2233.8791,946.659 2151.1431,966.438 C2087.3171,981.696 2023.8361,978.546 1962.9071,953.163 C1878.5671,918.026 1827.9551,854.075 1809.6801,765.033 C1797.7481,706.898 1801.8471,649.383 1824.8311,594.331 C1858.2581,514.269 1918.9201,465.429 2002.2831,443.923 C2027.0761,437.526 2052.4221,435.145 2077.9921,434.94 Z M1512.3116,455.0231 C1526.1106,460.0761 1538.9216,467.8291 1552.1836,474.3501 C1555.0286,475.7491 1555.9896,477.9201 1555.9766,481.1831 C1555.8506,511.6771 1555.9256,542.1721 1555.8336,572.6671 C1555.8286,574.2381 1554.8286,575.8061 1554.2916,577.3751 C1552.5226,576.7101 1550.2776,576.5241 1549.0526,575.3091 C1519.8436,546.3421 1483.4586,532.2461 1443.9856,524.8351 C1419.0126,520.1461 1393.7776,518.3911 1368.3816,520.6931 C1348.9646,522.4531 1330.2006,526.7061 1313.1946,536.6641 C1291.1086,549.5971 1278.4486,568.2321 1279.0676,594.6331 C1279.4726,611.8751 1287.1286,624.8801 1301.7516,633.8801 C1315.5896,642.3971 1330.9036,647.1001 1346.6996,649.7001 C1368.5256,653.2931 1390.5206,655.8711 1412.4506,658.8281 C1443.7106,663.0431 1474.4446,669.2331 1503.6916,681.6131 C1555.7336,703.6391 1582.0866,743.3631 1585.3486,799.2011 C1586.8206,824.3871 1585.1076,849.1861 1576.0286,873.0141 C1560.6426,913.3961 1530.9886,939.3841 1491.9286,955.6491 C1465.3826,966.7041 1437.5186,972.1231 1408.9246,973.8851 C1362.7976,976.7281 1317.0346,974.0941 1271.8986,963.6921 C1242.1526,956.8351 1213.9246,946.2511 1188.5946,928.7411 C1185.2436,926.4241 1183.7806,924.0121 1183.80626,919.8151 C1183.9916,889.8211 1183.9006,859.8261 1183.9166,829.8301 C1183.9176,828.0461 1184.0796,826.2621 1184.2336,823.1001 C1187.1316,824.3391 1189.6156,824.7681 1191.2326,826.1851 C1231.1016,861.1361 1278.0546,879.8711 1330.0816,886.9451 C1359.9326,891.0031 1389.8266,891.9351 1419.6646,886.7991 C1434.5346,884.2401 1448.7876,879.7551 1461.6736,871.6511 C1485.8686,856.4351 1496.6216,829.4501 1489.6646,802.0091 C1486.2026,788.3551 1477.5896,778.8951 1465.7746,771.9931 C1452.3836,764.1701 1437.7426,759.4771 1422.6326,756.8671 C1400.0166,752.9611 1377.2426,749.9541 1354.5116,746.7331 C1320.7966,741.9561 1287.5776,735.4231 1256.4336,720.8661 C1211.7436,699.9781 1188.8586,664.5231 1185.3266,615.7381 C1183.3006,587.7431 1185.7166,560.4371 1196.8206,534.4151 C1213.6136,495.0601 1243.8256,469.7651 1282.6426,453.8301 C1313.2336,441.2711 1345.3546,436.1941 1378.2106,435.3621 C1424.0226,434.2011 1469.0756,439.1941 1512.3116,455.0231 Z M2538.8243,442.919572 C2542.8893,442.9048 2545.0463,444.3088 2547.1153,447.6578 C2625.7663,574.9468 2704.5083,702.1788 2783.2423,829.4168 C2784.1913,830.9508 2785.1973,832.4498 2786.1763,833.9658 C2786.5613,833.8618 2786.9473,833.7588 2787.3323,833.6548 L2787.3323,443.4718 L2879.1293,443.4718 L2879.1293,966.8808 C2877.1163,966.9688 2875.1893,967.1268 2873.2623,967.1278 C2839.0973,967.1418 2804.9323,967.0598 2770.7683,967.236118 C2766.4373,967.2588 2763.9453,966.0398 2761.6173,962.2388 C2677.9343,825.5778 2594.1233,688.9948 2510.3243,552.4048 C2509.2113,550.5908 2508.0203,548.8258 2505.7843,547.2278 L2505.7843,966.7948 L2413.6133,966.7948 L2413.61369,964.338377 C2413.61397,963.283473 2413.6143,962.2678 2413.6143,961.2518 C2413.6143,790.4268 2413.6333,619.6018 2413.51629,448.7768 C2413.51629,444.1898 2414.7163,442.8998 2419.3323,442.919572 C2459.1623,443.0968 2498.9943,443.0878 2538.8243,442.919572 Z M1741.544,443.357 L1741.544,966.704 L1647.045,966.704 L1647.045,443.357 L1741.544,443.357 Z M2049.7401,521.673 C1991.5261,530.033 1947.7421,559.401 1920.5261,612.04 C1905.5231,641.06 1899.8761,672.36 1898.4221,704.935 C1900.4261,720.602 1901.3101,736.512 1904.6321,751.894 C1916.9341,808.85 1948.1371,851.506 2002.2641,875.383 C2036.5621,890.512 2072.6971,893.641 2109.4811,887.819 C2164.8231,879.058 2207.9141,851.173 2233.2151,800.779 C2264.4161,738.629 2264.3401,674.736 2234.6251,611.935 C2215.3391,571.175 2182.7431,544.081 2139.9751,529.583 C2110.5761,519.618 2080.3761,517.274 2049.7401,521.673 Z M826.6096,83.4902 C847.7436,84.4432 865.3676,94.6262 875.5146,115.5162 C885.8326,136.7582 883.5396,157.5562 868.8356,176.0582 C825.3016,230.8322 781.4086,285.3202 737.6566,339.9202 C715.2596,367.8692 693.0646,395.9852 670.3956,423.7122 C655.2176,442.2772 634.9256,448.2092 612.0516,443.2232 C590.2396,438.4692 575.9276,424.4262 570.1426,402.7612 C565.2246,384.3392 569.3436,367.4942 581.2986,352.5852 C625.7966,297.0922 670.2756,241.5842 714.7606,186.0832 C736.3266,159.1772 757.8586,132.2442 779.4726,105.3772 C791.0466,90.9902 806.1796,83.8162 826.6096,83.4902 Z" fill="#000"></path>
        </g>
    </g>
</svg>