<?xml version="1.0" encoding="UTF-8"?>
<svg viewBox="0 0 100 100" version="1.1" xmlns="http://www.w3.org/2000/svg" xmlns:xlink="http://www.w3.org/1999/xlink">
    <!-- Generator: Sketch 61.2 (89653) - https://sketch.com -->
    <g id="Youtube" stroke="none" stroke-width="1" fill-rule="evenodd">
        <g id="002-youtube" transform="translate(0.000000, 18.000000)"  fill-rule="nonzero">
            <path d="M95.75,6.26363636 C93.0375,1.70181818 90.09375,0.862727273 84.1,0.543636364 C78.1125,0.159545455 63.05625,0 50.0125,0 C36.94375,0 21.88125,0.159545455 15.9,0.537727273 C9.91875,0.862727273 6.96875,1.69590909 4.23125,6.26363636 C1.4375,10.8195455 0,18.6668182 0,32.4822727 C0,32.4940909 0,32.5 0,32.5 C0,32.5118182 0,32.5177273 0,32.5177273 L0,32.5295455 C0,46.2859091 1.4375,54.1922727 4.23125,58.7009091 C6.96875,63.2627273 9.9125,64.09 15.89375,64.4740909 C21.88125,64.805 36.94375,65 50.0125,65 C63.05625,65 78.1125,64.805 84.10625,64.48 C90.1,64.0959091 93.04375,63.2686364 95.75625,58.7068182 C98.575,54.1981818 100,46.2918182 100,32.5354545 C100,32.5354545 100,32.5177273 100,32.5059091 C100,32.5059091 100,32.4940909 100,32.4881818 C100,18.6668182 98.575,10.8195455 95.75,6.26363636 Z M37.5,50.2272727 L37.5,14.7727273 L68.75,32.5 L37.5,50.2272727 Z" id="Shape"></path>
        </g>
    </g>
</svg>